<svg  viewBox="0 0 652 95" fill="none" xmlns="http://www.w3.org/2000/svg">
<path d="M25.88 94.896C20.1627 94.896 15.4267 93.872 11.672 91.824C7.91733 89.6907 5.144 86.96 3.352 83.632C1.56 80.2187 0.664 76.5493 0.664 72.624C0.664 69.1253 1.34667 65.6693 2.712 62.256C4.07733 58.8427 6.08267 55.728 8.728 52.912C11.4587 50.096 14.744 47.8773 18.584 46.256C15.0853 44.0373 12.44 41.392 10.648 38.32C8.94133 35.1627 8.088 31.8773 8.088 28.464C8.088 24.0267 9.53867 19.7173 12.44 15.536C15.3413 11.3547 19.5653 7.89866 25.112 5.168C30.6587 2.43733 37.3147 1.072 45.08 1.072C50.456 1.072 54.7227 1.75466 57.88 3.12C61.1227 4.39999 63.4693 6.10666 64.92 8.24C66.3707 10.288 67.096 12.5067 67.096 14.896C67.096 17.6267 66.2427 20.3573 64.536 23.088C62.8293 25.7333 60.3547 27.9093 57.112 29.616C53.9547 31.3227 50.072 32.176 45.464 32.176C46.8293 28.1653 47.512 24.8373 47.512 22.192C47.512 19.5467 46.9573 17.6267 45.848 16.432C44.7387 15.2373 43.3733 14.64 41.752 14.64C40.0453 14.64 38.2107 15.28 36.248 16.56C34.3707 17.84 32.792 19.632 31.512 21.936C30.232 24.24 29.592 26.928 29.592 30C29.592 31.6213 29.848 33.456 30.36 35.504C30.872 37.4667 31.6827 39.4293 32.792 41.392C34.6693 40.1973 36.376 39.344 37.912 38.832C39.5333 38.2347 40.984 37.936 42.264 37.936C44.9093 37.936 46.8293 38.8747 48.024 40.752C49.2187 42.544 49.816 44.592 49.816 46.896C49.816 49.6267 48.9627 52.2293 47.256 54.704C45.6347 57.1787 43.2027 58.416 39.96 58.416C36.9733 58.416 33.4747 57.008 29.464 54.192C24.7707 57.52 22.424 61.4453 22.424 65.968C22.424 69.4667 23.4907 72.112 25.624 73.904C27.8427 75.696 30.6587 76.592 34.072 76.592C38.424 76.592 43.288 75.0987 48.664 72.112C54.04 69.04 58.8187 64.4747 63 58.416L64.024 59.056C63.8533 65.0293 62.616 70.2773 60.312 74.8C58.0933 79.2373 55.1493 82.9493 51.48 85.936C47.896 88.9227 43.8853 91.184 39.448 92.72C35.0107 94.1707 30.488 94.896 25.88 94.896ZM87.412 94.512C82.4627 94.512 78.5373 93.232 75.636 90.672C72.7347 88.0267 71.284 83.9733 71.284 78.512C71.284 75.3547 71.668 71.984 72.436 68.4C73.2893 64.816 74.1 61.616 74.868 58.8C75.636 56.0693 76.2333 53.68 76.66 51.632C77.172 49.584 77.428 48.0053 77.428 46.896C77.428 45.5307 77.1293 44.5493 76.532 43.952C75.9347 43.3547 75.2093 43.056 74.356 43.056C72.308 43.056 70.6013 44.0373 69.236 46L68.724 45.488C68.8093 42.5867 69.748 39.9413 71.54 37.552C73.332 35.0773 75.636 33.1147 78.452 31.664C81.268 30.2133 84.1267 29.488 87.028 29.488C90.2707 29.488 93.044 30.4693 95.348 32.432C97.652 34.3093 98.7187 37.296 98.548 41.392C98.4627 43.184 98.1213 45.4453 97.524 48.176C97.012 50.9067 96.2867 54.1493 95.348 57.904C94.7507 60.2933 94.1107 63.024 93.428 66.096C92.8307 69.0827 92.532 71.8133 92.532 74.288C92.532 76.1653 92.8307 77.6587 93.428 78.768C94.0253 79.8773 95.0067 80.432 96.372 80.432C98.164 80.432 100.127 79.4507 102.26 77.488C104.479 75.44 106.399 72.1547 108.02 67.632C109.641 63.024 110.58 56.9227 110.836 49.328C111.092 43.5253 110.708 39.3013 109.684 36.656V36.016C110.452 34.8213 111.604 33.6693 113.14 32.56C114.761 31.4507 116.553 30.5547 118.516 29.872C120.479 29.104 122.313 28.72 124.02 28.72C126.751 28.72 129.055 30.0427 130.932 32.688C132.895 35.3333 133.748 39.9413 133.492 46.512C133.321 52.8267 132.169 58.544 130.036 63.664C127.988 68.784 125.3 73.264 121.972 77.104C118.644 80.944 114.975 84.144 110.964 86.704C107.039 89.264 103.028 91.2267 98.932 92.592C94.836 93.872 90.996 94.512 87.412 94.512ZM163.404 25.52C159.991 25.52 157.175 24.496 154.956 22.448C152.823 20.3147 151.756 17.6693 151.756 14.512C151.756 11.0987 153.036 8.15466 155.596 5.67999C158.156 3.20533 161.271 1.96799 164.94 1.96799C168.353 1.96799 171.127 3.03466 173.26 5.168C175.479 7.30133 176.588 9.94666 176.588 13.104C176.588 16.5173 175.308 19.4613 172.748 21.936C170.188 24.3253 167.073 25.52 163.404 25.52ZM154.444 94.512C151.116 94.512 148.129 93.36 145.484 91.056C142.839 88.6667 141.516 84.8693 141.516 79.664C141.516 76.6773 141.9 73.904 142.668 71.344C143.521 68.6987 144.46 66.1387 145.484 63.664C146.593 61.1893 147.532 58.8 148.3 56.496C149.153 54.1067 149.58 51.76 149.58 49.456C149.58 47.408 149.239 45.9573 148.556 45.104C147.873 44.1653 147.063 43.696 146.124 43.696C144.673 43.696 143.265 44.6347 141.9 46.512L141.004 46C141.345 42.5867 142.412 39.6853 144.204 37.296C146.081 34.8213 148.343 32.9013 150.988 31.536C153.719 30.1707 156.407 29.488 159.052 29.488C162.295 29.488 165.111 30.5547 167.5 32.688C169.889 34.736 171.084 38.1067 171.084 42.8C171.084 45.616 170.657 48.6027 169.804 51.76C169.036 54.832 168.097 57.904 166.988 60.976C165.964 64.048 165.025 66.9067 164.172 69.552C163.404 72.1973 163.02 74.4587 163.02 76.336C163.02 77.9573 163.319 79.1093 163.916 79.792C164.599 80.4747 165.324 80.816 166.092 80.816C166.86 80.816 167.585 80.6027 168.268 80.176C169.036 79.664 169.591 79.1093 169.932 78.512L170.828 78.768C170.828 81.9253 169.975 84.6987 168.268 87.088C166.647 89.392 164.599 91.2267 162.124 92.592C159.649 93.872 157.089 94.512 154.444 94.512ZM227.057 94.64C224.07 94.64 221.468 93.6587 219.249 91.696C217.03 89.7333 215.921 86.5333 215.921 82.096C215.921 81.6693 215.921 81.2427 215.921 80.816C215.921 80.3893 215.964 79.9627 216.049 79.536C213.489 84.656 210.588 88.4533 207.345 90.928C204.188 93.3173 200.988 94.512 197.745 94.512C194.758 94.512 191.942 93.488 189.297 91.44C186.652 89.3067 184.518 86.192 182.897 82.096C181.276 78 180.465 73.0507 180.465 67.248C180.465 61.2747 181.276 55.9413 182.897 51.248C184.604 46.5547 186.822 42.5867 189.553 39.344C192.284 36.1013 195.27 33.6693 198.513 32.048C201.756 30.3413 204.913 29.488 207.985 29.488C211.398 29.488 214.47 30.5547 217.201 32.688C219.932 34.736 221.809 38.0213 222.833 42.544C223.089 41.0933 223.26 39.7707 223.345 38.576C223.516 37.3813 223.601 36.5707 223.601 36.144C223.686 33.84 224.838 32.1333 227.057 31.024C229.361 29.9147 231.878 29.36 234.609 29.36C236.998 29.36 239.26 29.8293 241.393 30.768C243.526 31.7067 244.977 33.2853 245.745 35.504L246.001 36.272C244.977 38.576 243.953 41.3493 242.929 44.592C241.905 47.8347 240.966 51.248 240.113 54.832C239.26 58.3307 238.577 61.7867 238.065 65.2C237.553 68.528 237.297 71.472 237.297 74.032C237.297 76.848 237.596 78.8107 238.193 79.92C238.79 80.944 239.516 81.456 240.369 81.456C241.82 81.456 243.142 80.432 244.337 78.384L245.361 78.896C245.361 81.7973 244.422 84.4427 242.545 86.832C240.668 89.2213 238.321 91.1413 235.505 92.592C232.689 93.9573 229.873 94.64 227.057 94.64ZM206.193 78.384C208.412 78.384 210.844 76.4213 213.489 72.496C216.22 68.4853 218.566 62.768 220.529 55.344C220.7 54.576 220.87 53.8507 221.041 53.168C221.212 52.4 221.34 51.6747 221.425 50.992C220.06 47.8347 218.609 45.616 217.073 44.336C215.622 42.9707 214.172 42.288 212.721 42.288C210.588 42.288 208.582 43.44 206.705 45.744C204.913 47.9627 203.42 50.7787 202.225 54.192C201.116 57.6053 200.561 61.0187 200.561 64.432C200.561 69.1253 201.073 72.624 202.097 74.928C203.206 77.232 204.572 78.384 206.193 78.384ZM249.168 66.736C248.656 65.6267 248.272 64.56 248.016 63.536C247.845 62.4267 247.76 61.4027 247.76 60.464C247.76 57.136 248.912 54.4053 251.216 52.272C253.52 50.0533 256.635 48.944 260.56 48.944C264.315 48.944 268.027 49.1147 271.696 49.456C275.451 49.712 278.907 49.84 282.064 49.84C284.453 49.84 286.587 49.712 288.464 49.456C290.427 49.1147 292.005 48.5173 293.2 47.664C294.736 50.48 295.504 53.1253 295.504 55.6C295.504 58.5013 294.437 60.8907 292.304 62.768C290.171 64.6453 286.843 65.584 282.32 65.584C277.627 65.584 273.488 65.5413 269.904 65.456C266.32 65.2853 263.12 65.2 260.304 65.2C258 65.2 255.909 65.2853 254.032 65.456C252.24 65.6267 250.619 66.0533 249.168 66.736ZM325.801 94.896C318.036 94.896 311.678 93.4453 306.729 90.544C301.78 87.6427 299.305 82.9067 299.305 76.336C299.305 75.6533 299.305 75.056 299.305 74.544C299.39 73.9467 299.476 73.4773 299.561 73.136C299.902 70.7467 300.628 67.8027 301.737 64.304C302.846 60.8053 304.126 57.0933 305.577 53.168C307.028 49.1573 308.436 45.232 309.801 41.392C311.166 37.552 312.318 34.0533 313.257 30.896C314.196 27.6533 314.665 25.0507 314.665 23.088C314.665 20.8693 313.94 19.76 312.489 19.76C310.868 19.76 308.862 20.9973 306.473 23.472C304.084 25.8613 301.566 29.232 298.921 33.584L298.153 33.2C298.153 27.568 299.262 22.704 301.481 18.608C303.7 14.512 306.644 11.1413 310.313 8.49599C313.982 5.76533 318.078 3.75999 322.601 2.48C327.124 1.2 331.689 0.559998 336.297 0.559998C342.014 0.559998 347.39 1.49866 352.425 3.376C357.46 5.168 361.556 7.77066 364.713 11.184C367.956 14.5973 369.577 18.7787 369.577 23.728C369.577 32.6027 364.158 39.5147 353.321 44.464C359.721 45.9147 364.414 48.3467 367.401 51.76C370.388 55.1733 371.881 58.9707 371.881 63.152C371.881 66.8213 370.772 70.5333 368.553 74.288C366.42 77.9573 363.348 81.3707 359.337 84.528C355.326 87.6 350.462 90.1173 344.745 92.08C339.113 93.9573 332.798 94.896 325.801 94.896ZM330.793 40.624C334.718 40.7093 338.132 40.112 341.033 38.832C344.02 37.4667 346.324 35.76 347.945 33.712C349.652 31.5787 350.505 29.4027 350.505 27.184C350.505 24.2827 348.969 21.7227 345.897 19.504C342.825 17.2 338.004 16.048 331.433 16.048C331.774 17.6693 331.988 19.2907 332.073 20.912C332.244 22.5333 332.329 24.112 332.329 25.648C332.329 28.1227 332.158 30.5973 331.817 33.072C331.561 35.5467 331.22 38.064 330.793 40.624ZM329.385 79.28C333.054 79.28 336.297 78.5547 339.113 77.104C341.929 75.568 344.148 73.648 345.769 71.344C347.39 68.9547 348.201 66.5227 348.201 64.048C348.201 60.6347 346.58 57.4773 343.337 54.576C340.094 51.6747 335.017 49.8827 328.105 49.2C327.764 51.8453 327.038 54.6613 325.929 57.648C324.905 60.6347 323.924 63.4933 322.985 66.224C322.046 68.9547 321.577 71.344 321.577 73.392C321.577 75.184 322.132 76.6347 323.241 77.744C324.35 78.768 326.398 79.28 329.385 79.28ZM407.369 94.896C400.969 94.896 395.678 93.616 391.497 91.056C387.316 88.496 384.201 85.1253 382.153 80.944C380.19 76.6773 379.209 72.1547 379.209 67.376C379.209 62.8533 380.02 58.3307 381.641 53.808C383.348 49.2853 385.78 45.1893 388.937 41.52C392.18 37.7653 396.105 34.7787 400.713 32.56C405.321 30.256 410.612 29.104 416.585 29.104C422.985 29.104 428.233 30.4267 432.329 33.072C436.51 35.632 439.582 39.0453 441.545 43.312C443.593 47.5787 444.617 52.144 444.617 57.008C444.617 61.4453 443.806 65.9253 442.185 70.448C440.564 74.8853 438.132 78.9813 434.889 82.736C431.732 86.4053 427.849 89.3493 423.241 91.568C418.633 93.7867 413.342 94.896 407.369 94.896ZM410.825 84.016C413.129 84.016 415.049 82.8213 416.585 80.432C418.121 78.0427 419.273 75.0133 420.041 71.344C420.809 67.5893 421.193 63.792 421.193 59.952C421.193 56.5387 420.852 53.3387 420.169 50.352C419.572 47.28 418.633 44.8053 417.353 42.928C416.073 40.9653 414.409 39.984 412.361 39.984C410.142 39.984 408.222 41.1787 406.601 43.568C405.065 45.9573 403.913 48.9867 403.145 52.656C402.377 56.3253 401.993 60.1227 401.993 64.048C401.993 67.4613 402.292 70.704 402.889 73.776C403.572 76.7627 404.553 79.2373 405.833 81.2C407.113 83.0773 408.777 84.016 410.825 84.016ZM498.682 94.64C495.695 94.64 493.093 93.6587 490.874 91.696C488.655 89.7333 487.546 86.5333 487.546 82.096C487.546 81.6693 487.546 81.2427 487.546 80.816C487.546 80.3893 487.589 79.9627 487.674 79.536C485.114 84.656 482.213 88.4533 478.97 90.928C475.813 93.3173 472.613 94.512 469.37 94.512C466.383 94.512 463.567 93.488 460.922 91.44C458.277 89.3067 456.143 86.192 454.522 82.096C452.901 78 452.09 73.0507 452.09 67.248C452.09 61.2747 452.901 55.9413 454.522 51.248C456.229 46.5547 458.447 42.5867 461.178 39.344C463.909 36.1013 466.895 33.6693 470.138 32.048C473.381 30.3413 476.538 29.488 479.61 29.488C483.023 29.488 486.095 30.5547 488.826 32.688C491.557 34.736 493.434 38.0213 494.458 42.544C494.714 41.0933 494.885 39.7707 494.97 38.576C495.141 37.3813 495.226 36.5707 495.226 36.144C495.311 33.84 496.463 32.1333 498.682 31.024C500.986 29.9147 503.503 29.36 506.234 29.36C508.623 29.36 510.885 29.8293 513.018 30.768C515.151 31.7067 516.602 33.2853 517.37 35.504L517.626 36.272C516.602 38.576 515.578 41.3493 514.554 44.592C513.53 47.8347 512.591 51.248 511.738 54.832C510.885 58.3307 510.202 61.7867 509.69 65.2C509.178 68.528 508.922 71.472 508.922 74.032C508.922 76.848 509.221 78.8107 509.818 79.92C510.415 80.944 511.141 81.456 511.994 81.456C513.445 81.456 514.767 80.432 515.962 78.384L516.986 78.896C516.986 81.7973 516.047 84.4427 514.17 86.832C512.293 89.2213 509.946 91.1413 507.13 92.592C504.314 93.9573 501.498 94.64 498.682 94.64ZM477.818 78.384C480.037 78.384 482.469 76.4213 485.114 72.496C487.845 68.4853 490.191 62.768 492.154 55.344C492.325 54.576 492.495 53.8507 492.666 53.168C492.837 52.4 492.965 51.6747 493.05 50.992C491.685 47.8347 490.234 45.616 488.698 44.336C487.247 42.9707 485.797 42.288 484.346 42.288C482.213 42.288 480.207 43.44 478.33 45.744C476.538 47.9627 475.045 50.7787 473.85 54.192C472.741 57.6053 472.186 61.0187 472.186 64.432C472.186 69.1253 472.698 72.624 473.722 74.928C474.831 77.232 476.197 78.384 477.818 78.384ZM539.316 94.512C536.244 94.512 533.513 93.2747 531.124 90.8C528.735 88.24 527.54 84.656 527.54 80.048C527.54 77.8293 527.796 75.312 528.308 72.496C528.82 69.68 529.417 66.8213 530.1 63.92C530.783 60.9333 531.38 58.16 531.892 55.6C532.404 52.9547 532.66 50.7787 532.66 49.072C532.66 47.28 532.319 45.872 531.636 44.848C531.039 43.7387 530.228 43.184 529.204 43.184C527.583 43.184 525.919 44.2933 524.212 46.512L523.444 46C523.359 44.6347 523.657 43.0133 524.34 41.136C525.023 39.2587 526.089 37.4667 527.54 35.76C528.991 33.968 530.825 32.4747 533.044 31.28C535.348 30.0853 538.036 29.488 541.108 29.488C545.631 29.488 548.916 30.8107 550.964 33.456C553.012 36.016 554.036 39.1307 554.036 42.8C554.036 43.3973 553.993 44.0373 553.908 44.72C553.908 45.3173 553.865 45.9147 553.78 46.512C556.852 40.9653 560.052 36.7413 563.38 33.84C566.793 30.8533 569.951 29.36 572.852 29.36C575.583 29.36 577.588 30.4267 578.868 32.56C580.148 34.6933 580.788 37.2533 580.788 40.24C580.788 42.9707 580.233 45.744 579.124 48.56C578.1 51.376 576.521 53.7227 574.388 55.6C572.34 57.392 569.823 58.2453 566.836 58.16L566.324 57.904C566.239 55.6853 565.513 53.936 564.148 52.656C562.783 51.376 561.247 50.736 559.54 50.736C557.236 50.736 555.06 51.888 553.012 54.192C551.049 56.496 550.068 59.824 550.068 64.176C550.068 66.8213 550.367 69.68 550.964 72.752C551.561 75.824 551.86 78.4267 551.86 80.56C551.86 83.12 551.263 85.4667 550.068 87.6C548.873 89.7333 547.337 91.44 545.46 92.72C543.583 93.9147 541.535 94.512 539.316 94.512ZM600.769 94.512C597.697 94.512 594.796 93.4453 592.065 91.312C589.42 89.1787 587.244 86.064 585.537 81.968C583.916 77.872 583.105 72.9227 583.105 67.12C583.105 61.1467 583.958 55.8133 585.665 51.12C587.372 46.4267 589.59 42.4587 592.321 39.216C595.137 35.888 598.166 33.3707 601.409 31.664C604.737 29.9573 607.98 29.104 611.137 29.104C614.636 29.104 617.75 30.2133 620.481 32.432C623.212 34.5653 625.089 37.936 626.113 42.544C626.881 38.2773 627.521 34.224 628.033 30.384C628.63 26.4587 628.929 23.0027 628.929 20.016C628.929 16.0907 628.417 13.232 627.393 11.44V10.672C629.356 8.45333 631.489 6.832 633.793 5.808C636.182 4.69866 638.444 4.144 640.577 4.144C643.393 4.144 645.782 5.04 647.745 6.83199C649.708 8.53866 650.689 11.0133 650.689 14.256C650.689 16.048 650.39 18.6933 649.793 22.192C649.196 25.6907 648.47 29.7013 647.617 34.224C646.764 38.6613 645.868 43.2693 644.929 48.048C644.076 52.7413 643.35 57.264 642.753 61.616C642.156 65.8827 641.857 69.5947 641.857 72.752C641.857 75.3973 642.113 77.5307 642.625 79.152C643.222 80.688 644.161 81.456 645.441 81.456C646.38 81.456 647.318 81.1573 648.257 80.56C649.281 79.8773 649.964 79.1093 650.305 78.256L651.201 78.896C651.201 81.712 650.305 84.3147 648.513 86.704C646.721 89.008 644.46 90.8853 641.729 92.336C638.998 93.7867 636.182 94.512 633.281 94.512C630.124 94.512 627.606 93.6587 625.729 91.952C623.937 90.16 622.657 87.8987 621.889 85.168C621.121 82.4373 620.694 79.6213 620.609 76.72C617.964 82.864 614.849 87.3867 611.265 90.288C607.766 93.104 604.268 94.512 600.769 94.512ZM609.345 78.256C611.564 78.256 614.038 76.2507 616.769 72.24C619.5 68.2293 621.889 62.384 623.937 54.704L624.705 50.736C623.34 47.5787 621.846 45.36 620.225 44.08C618.689 42.7147 617.196 42.032 615.745 42.032C613.612 42.032 611.606 43.2267 609.729 45.616C607.852 47.92 606.316 50.9067 605.121 54.576C604.012 58.16 603.457 61.9573 603.457 65.968C603.457 69.808 604.012 72.8373 605.121 75.056C606.23 77.1893 607.638 78.256 609.345 78.256Z" fill="url(#paint0_linear_2001_3)"/>
<defs>
<linearGradient id="paint0_linear_2001_3" x1="-1" y1="35.5" x2="654" y2="35.5" gradientUnits="userSpaceOnUse">
<stop stop-color="#FF0000"/>
<stop offset="1" stop-color="#6100FF"/>
</linearGradient>
</defs>
</svg>
